<?xml version="1.0" encoding="UTF-8" standalone="no"?>
<!-- Created with Inkscape (http://www.inkscape.org/) -->

<svg
   width="132"
   height="44"
   viewBox="0 0 132 44"
   version="1.1"
   id="svg1"
   inkscape:version="1.4.4 (dcaf3e7, 2026-05-05)"
   sodipodi:docname="digform-logo.svg"
   inkscape:export-filename="digiform-logo.png"
   inkscape:export-xdpi="96"
   inkscape:export-ydpi="96"
   xmlns:inkscape="http://www.inkscape.org/namespaces/inkscape"
   xmlns:sodipodi="http://sodipodi.sourceforge.net/DTD/sodipodi-0.dtd"
   xmlns="http://www.w3.org/2000/svg"
   xmlns:svg="http://www.w3.org/2000/svg">
  <sodipodi:namedview
     id="namedview1"
     pagecolor="#ffffff"
     bordercolor="#000000"
     borderopacity="0.25"
     inkscape:showpageshadow="2"
     inkscape:pageopacity="0.0"
     inkscape:pagecheckerboard="0"
     inkscape:deskcolor="#d1d1d1"
     inkscape:document-units="px"
     inkscape:zoom="12.964539"
     inkscape:cx="40.456509"
     inkscape:cy="6.4020787"
     inkscape:window-width="3840"
     inkscape:window-height="2054"
     inkscape:window-x="3829"
     inkscape:window-y="-11"
     inkscape:window-maximized="1"
     inkscape:current-layer="layer1" />
  <defs
     id="defs1" />
  <g
     inkscape:label="Layer 1"
     inkscape:groupmode="layer"
     id="layer1"
     style="display:inline">
    <g
       id="shape_ZJ1uZbmSOT"
       ref="shape_ZJ1uZbmSOT"
       key="shape_ZJ1uZbmSOT"
       mask=""
       transform="matrix(0.20068427,0,0,0.22573481,-31.575853,-44.983957)">
      <g
         transform="translate(160,221.89737)"
         style="opacity:1"
         filter=""
         id="g5">
        <!--普通元素-->
        <svg
           version="1.1"
           id="图层_1"
           x="0px"
           y="0px"
           width="140.95174"
           height="156.20526"
           viewBox="0 0 122.9 136.2"
           xml:space="preserve"
           class="style-removed"
           preserveAspectRatio="none"
           data-parent="shape_ZJ1uZbmSOT">

<g
   id="g4">
	<path
   d="m 79,128.1 c -5.5,1.5 -11.4,1.4 -16.9,-0.2 -5.5,-1.5 -10.5,-4.4 -14.7,-8.1 -4.1,-3.7 -7.3,-8.3 -8.8,-13.4 2.7,-1.6 7.3,-4.9 10.7,-10.1 l 1.5,-6.6 C 53,80 50,71.7 46,64.2 c -1.5,1 -3.2,2.3 -4.7,3.9 -5.4,4.1 -10.1,9.2 -13.1,15.4 -3.7,7.4 -4.4,16.1 -2.5,24 1.9,7.9 6.1,15.2 12,20.7 5.9,5.5 14,8.7 22,8.1 -8,0.3 -15.9,-3.1 -21.5,-8.6 -5.6,-5.5 -9.5,-12.8 -11,-20.5 -1.6,-7.6 -0.6,-15.8 3.1,-22.6 1.3,-2.5 3,-4.9 4.9,-7.1 -2.7,6.9 -6.1,29.2 11,43.9 4.5,3.9 9.9,6.6 15.7,7.9 5.7,1.4 11.8,1.3 17.4,-0.5 5.6,-1.7 10.5,-5.1 14.6,-9.1 -4.4,3.8 -9.4,6.9 -14.9,8.4 z"
   fill="#192786"
   stroke-width="0"
   id="path1" />
	<path
   d="m 33.5,41.5 c -0.8,-3 -1.3,-5.8 -1.6,-8.5 -4,-0.5 -7.7,0 -11.1,0.9 C 8.2,37.5 0,48.3 0,48.3 c 1.4,-0.9 3.2,-1.6 5.1,-2.2 9.2,-2.6 23.1,-0.8 32.7,4.6 -1.9,-3.1 -3.5,-6.2 -4.3,-9.2 z"
   fill="#24acf0"
   stroke-width="0"
   id="path2" />
	<path
   d="M 99,37.8 C 87.6,30.7 76.4,31.4 68.3,33.6 66.8,34 65.5,34.5 64.2,35 c 2.6,3.2 4.9,6.7 6.2,11.2 3.9,13.8 0.2,25.1 -4.5,33.1 2.8,-3.6 5.3,-8.2 7.1,-14.1 4.8,-15.9 17.6,-21.7 24.8,-23.7 3,-0.8 5,-1 5,-1 v 0 c 14.3,-1.7 20.1,11.6 20.1,11.6 0,0 -5.4,-16.6 -23.9,-14.3 z"
   fill="#24acf0"
   stroke-width="0"
   id="path3" />
	<path
   d="M 61.7,36.1 C 61.4,35.7 61.1,35.4 60.8,35 60.5,34.7 60.2,34.3 59.9,34 53.4,26.4 46.4,18.5 50.9,0 c 0,0 -17.3,9.7 -16.5,30.8 0,0.4 0.1,0.9 0.1,1.4 0,0.4 0.1,0.9 0.1,1.4 0.2,2.3 0.6,4.7 1.4,7.3 1.2,4.4 4.2,9 7.4,14.1 1.6,2.5 3.2,5.1 4.7,7.8 1.6,2.9 3,5.8 4.1,9 1.9,5.6 2.7,11.7 1.1,18.5 0,0 0.1,-0.1 0.3,-0.2 0.4,-0.3 1,-0.8 1.9,-1.6 0.6,-0.5 1.2,-1.2 2,-2 0.6,-0.6 1.2,-1.3 1.8,-2 0.5,-0.6 1,-1.3 1.6,-2 C 66.5,75.1 72.4,62.8 68,47 66.7,42.6 64.3,39.3 61.7,36.1 Z"
   fill="#0054b3"
   stroke-width="0"
   id="path4" />
</g>
</svg>
      </g>
    </g>
    <text
       xml:space="preserve"
       style="font-style:normal;font-variant:normal;font-weight:normal;font-stretch:normal;font-size:16.0481px;font-family:'Courier New';-inkscape-font-specification:'Courier New, Normal';font-variant-ligatures:normal;font-variant-caps:normal;font-variant-numeric:normal;font-variant-east-asian:normal;writing-mode:lr-tb;direction:ltr;fill:#192786;fill-opacity:1;stroke:#1000ab;stroke-width:0.25075;stroke-opacity:0.634508"
       x="22.69339"
       y="27.502371"
       id="text1"
       transform="scale(0.9586109,1.0431761)"><tspan
         sodipodi:role="line"
         id="tspan3"
         x="22.69339"
         y="27.502371"
         style="stroke-width:0.25075">DigiForm.gr</tspan></text>
    <text
       xml:space="preserve"
       style="font-size:10.3113px;font-family:'Courier New';-inkscape-font-specification:'Courier New, Normal';writing-mode:lr-tb;direction:ltr;fill:#24acf0;fill-opacity:1;stroke:#1000ab;stroke-width:0.161113;stroke-opacity:0.634508"
       x="23.781778"
       y="35.588028"
       id="text2"
       transform="scale(0.97151214,1.0293232)"><tspan
         sodipodi:role="line"
         id="tspan2"
         x="23.781778"
         y="35.588028"
         style="font-style:normal;font-variant:normal;font-weight:normal;font-stretch:normal;font-size:4.72604px;font-family:Sans;-inkscape-font-specification:'Sans, Normal';font-variant-ligatures:normal;font-variant-caps:normal;font-variant-numeric:normal;font-variant-east-asian:normal;fill:#24acf0;fill-opacity:1;stroke-width:0.161113">Digital Business Transformation - make it Real!</tspan></text>
  </g>
</svg>
